<mxfile host="app.diagrams.net" modified="2022-08-25T09:38:04.727Z" agent="5.0 (Windows NT 10.0; WOW64) AppleWebKit/537.36 (KHTML, like Gecko) Chrome/78.0.3904.108 Safari/537.36" etag="R2Gav4uQcBxLGfDnx7MQ" version="20.2.7" type="github" pages="2">
  <diagram id="WsNz6YtpVmloEQHlZDa_" name="软件架构">
    <mxGraphModel dx="1187" dy="614" grid="1" gridSize="10" guides="1" tooltips="1" connect="1" arrows="1" fold="1" page="1" pageScale="1" pageWidth="827" pageHeight="1169" math="0" shadow="0">
      <root>
        <mxCell id="0" />
        <mxCell id="1" parent="0" />
        <mxCell id="-S-HyHiKvbqIZE7HfSdG-3" value="" style="endArrow=none;dashed=1;html=1;exitX=1.017;exitY=0.12;exitDx=0;exitDy=0;exitPerimeter=0;" edge="1" parent="1">
          <mxGeometry width="50" height="50" relative="1" as="geometry">
            <mxPoint x="100.01999999999998" y="239.20000000000005" as="sourcePoint" />
            <mxPoint x="829" y="239" as="targetPoint" />
          </mxGeometry>
        </mxCell>
        <mxCell id="-S-HyHiKvbqIZE7HfSdG-4" value="" style="endArrow=none;dashed=1;html=1;exitX=1.017;exitY=0.12;exitDx=0;exitDy=0;exitPerimeter=0;" edge="1" parent="1">
          <mxGeometry width="50" height="50" relative="1" as="geometry">
            <mxPoint x="100.01999999999998" y="360.20000000000005" as="sourcePoint" />
            <mxPoint x="829" y="360" as="targetPoint" />
          </mxGeometry>
        </mxCell>
        <mxCell id="-S-HyHiKvbqIZE7HfSdG-5" value="" style="endArrow=none;dashed=1;html=1;exitX=1.017;exitY=0.12;exitDx=0;exitDy=0;exitPerimeter=0;" edge="1" parent="1">
          <mxGeometry width="50" height="50" relative="1" as="geometry">
            <mxPoint x="100.01999999999998" y="590.2" as="sourcePoint" />
            <mxPoint x="829" y="590" as="targetPoint" />
          </mxGeometry>
        </mxCell>
        <mxCell id="-S-HyHiKvbqIZE7HfSdG-7" value="报表组件" style="text;html=1;resizable=0;points=[];autosize=1;align=left;verticalAlign=top;spacingTop=-4;fontStyle=1;fontSize=16;" vertex="1" parent="1">
          <mxGeometry x="100" y="180" width="90" height="30" as="geometry" />
        </mxCell>
        <mxCell id="-S-HyHiKvbqIZE7HfSdG-8" value="应用" style="text;html=1;resizable=0;points=[];autosize=1;align=left;verticalAlign=top;spacingTop=-4;fontStyle=1;fontSize=16;" vertex="1" parent="1">
          <mxGeometry x="100" y="87" width="60" height="30" as="geometry" />
        </mxCell>
        <mxCell id="-S-HyHiKvbqIZE7HfSdG-9" value="数据中心" style="text;html=1;resizable=0;points=[];autosize=1;align=left;verticalAlign=top;spacingTop=-4;fontStyle=1;fontSize=16;" vertex="1" parent="1">
          <mxGeometry x="100" y="272.5" width="90" height="30" as="geometry" />
        </mxCell>
        <mxCell id="-S-HyHiKvbqIZE7HfSdG-11" value="源数据" style="text;html=1;resizable=0;points=[];autosize=1;align=left;verticalAlign=top;spacingTop=-4;fontStyle=1;fontSize=16;" vertex="1" parent="1">
          <mxGeometry x="100" y="518" width="70" height="30" as="geometry" />
        </mxCell>
        <mxCell id="-S-HyHiKvbqIZE7HfSdG-13" value="" style="rounded=0;whiteSpace=wrap;html=1;fillColor=#FFCC99;strokeColor=none;" vertex="1" parent="1">
          <mxGeometry x="181" y="156" width="633" height="71" as="geometry" />
        </mxCell>
        <mxCell id="-S-HyHiKvbqIZE7HfSdG-19" value="&lt;span style=&quot;white-space: normal&quot;&gt;&lt;b&gt;&lt;font style=&quot;font-size: 17px&quot;&gt;院长决策&lt;/font&gt;&lt;/b&gt;&lt;/span&gt;" style="rounded=1;whiteSpace=wrap;html=1;align=left;fillColor=#FFB366;strokeColor=none;" vertex="1" parent="1">
          <mxGeometry x="181" y="45" width="259" height="80" as="geometry" />
        </mxCell>
        <mxCell id="-S-HyHiKvbqIZE7HfSdG-21" value="日常运营" style="rounded=0;whiteSpace=wrap;html=1;fontSize=15;fontStyle=1;strokeColor=none;" vertex="1" parent="1">
          <mxGeometry x="254" y="54" width="80" height="20" as="geometry" />
        </mxCell>
        <mxCell id="-S-HyHiKvbqIZE7HfSdG-24" value="" style="rounded=1;whiteSpace=wrap;html=1;align=left;fillColor=#CC6600;strokeColor=none;fontSize=15;fontStyle=1" vertex="1" parent="1">
          <mxGeometry x="182" y="370" width="638" height="98" as="geometry" />
        </mxCell>
        <mxCell id="-S-HyHiKvbqIZE7HfSdG-23" value="" style="rounded=1;whiteSpace=wrap;html=1;align=left;fillColor=#FF9933;strokeColor=none;" vertex="1" parent="1">
          <mxGeometry x="182" y="250" width="638" height="100" as="geometry" />
        </mxCell>
        <mxCell id="-S-HyHiKvbqIZE7HfSdG-31" value="复制" style="rounded=0;whiteSpace=wrap;html=1;align=center;fontSize=15;fontStyle=1;strokeColor=none;" vertex="1" parent="1">
          <mxGeometry x="308" y="409.5" width="70" height="35" as="geometry" />
        </mxCell>
        <mxCell id="-S-HyHiKvbqIZE7HfSdG-32" value="抽取" style="rounded=0;whiteSpace=wrap;html=1;align=center;fontSize=15;fontStyle=1;strokeColor=none;" vertex="1" parent="1">
          <mxGeometry x="384" y="409.5" width="66.5" height="35" as="geometry" />
        </mxCell>
        <mxCell id="-S-HyHiKvbqIZE7HfSdG-33" value="转换" style="rounded=0;whiteSpace=wrap;html=1;align=center;fontSize=15;fontStyle=1;strokeColor=none;" vertex="1" parent="1">
          <mxGeometry x="457" y="409.5" width="70" height="35" as="geometry" />
        </mxCell>
        <mxCell id="-S-HyHiKvbqIZE7HfSdG-34" value="" style="rounded=1;whiteSpace=wrap;html=1;align=left;fillColor=#994C00;strokeColor=none;" vertex="1" parent="1">
          <mxGeometry x="182" y="488" width="638" height="90" as="geometry" />
        </mxCell>
        <mxCell id="-S-HyHiKvbqIZE7HfSdG-37" value="HIS" style="strokeWidth=1;html=1;shape=mxgraph.flowchart.database;whiteSpace=wrap;align=center;fontSize=15;fontStyle=1;strokeColor=none;" vertex="1" parent="1">
          <mxGeometry x="220.5" y="501.5" width="79.5" height="63" as="geometry" />
        </mxCell>
        <mxCell id="-S-HyHiKvbqIZE7HfSdG-38" value="EMR" style="strokeWidth=1;html=1;shape=mxgraph.flowchart.database;whiteSpace=wrap;align=center;fontSize=14;fontStyle=1;strokeColor=none;" vertex="1" parent="1">
          <mxGeometry x="340.5" y="501.5" width="80" height="63" as="geometry" />
        </mxCell>
        <mxCell id="-S-HyHiKvbqIZE7HfSdG-39" value="PACS/RIS" style="strokeWidth=1;html=1;shape=mxgraph.flowchart.database;whiteSpace=wrap;align=center;fontSize=15;fontStyle=1;strokeColor=none;" vertex="1" parent="1">
          <mxGeometry x="461" y="501.5" width="80" height="63" as="geometry" />
        </mxCell>
        <mxCell id="-S-HyHiKvbqIZE7HfSdG-40" value="LIS" style="strokeWidth=1;html=1;shape=mxgraph.flowchart.database;whiteSpace=wrap;align=center;fontSize=15;fontStyle=1;strokeColor=none;" vertex="1" parent="1">
          <mxGeometry x="590" y="505.75" width="80" height="54.5" as="geometry" />
        </mxCell>
        <mxCell id="-S-HyHiKvbqIZE7HfSdG-47" value="..." style="strokeWidth=1;html=1;shape=mxgraph.flowchart.database;whiteSpace=wrap;align=center;fontSize=15;fontStyle=1;strokeColor=none;" vertex="1" parent="1">
          <mxGeometry x="710" y="505.75" width="80" height="54.5" as="geometry" />
        </mxCell>
        <mxCell id="-S-HyHiKvbqIZE7HfSdG-49" value="" style="endArrow=none;dashed=1;html=1;exitX=1.017;exitY=0.12;exitDx=0;exitDy=0;exitPerimeter=0;" edge="1" parent="1">
          <mxGeometry width="50" height="50" relative="1" as="geometry">
            <mxPoint x="99.99999999999999" y="480.20000000000005" as="sourcePoint" />
            <mxPoint x="828.98" y="480" as="targetPoint" />
          </mxGeometry>
        </mxCell>
        <mxCell id="-S-HyHiKvbqIZE7HfSdG-52" value="&lt;span style=&quot;font-size: 17px;&quot;&gt;&lt;b&gt;综合查询&lt;/b&gt;&lt;/span&gt;" style="rounded=1;whiteSpace=wrap;html=1;align=left;fillColor=#FFB366;strokeColor=none;" vertex="1" parent="1">
          <mxGeometry x="449" y="45" width="251" height="80" as="geometry" />
        </mxCell>
        <mxCell id="-S-HyHiKvbqIZE7HfSdG-58" value="医疗服务数据" style="strokeWidth=1;html=1;shape=mxgraph.flowchart.database;whiteSpace=wrap;align=center;fontSize=15;fontStyle=1;strokeColor=none;" vertex="1" parent="1">
          <mxGeometry x="190.25" y="267" width="99.5" height="70" as="geometry" />
        </mxCell>
        <mxCell id="-S-HyHiKvbqIZE7HfSdG-60" value="" style="endArrow=none;dashed=1;html=1;exitX=1.017;exitY=0.12;exitDx=0;exitDy=0;exitPerimeter=0;" edge="1" parent="1">
          <mxGeometry width="50" height="50" relative="1" as="geometry">
            <mxPoint x="101.01999999999998" y="144.20000000000027" as="sourcePoint" />
            <mxPoint x="830" y="144" as="targetPoint" />
          </mxGeometry>
        </mxCell>
        <mxCell id="-S-HyHiKvbqIZE7HfSdG-61" value="脱敏" style="rounded=0;whiteSpace=wrap;html=1;align=center;fontSize=15;fontStyle=1;strokeColor=none;" vertex="1" parent="1">
          <mxGeometry x="690" y="409.5" width="70" height="35" as="geometry" />
        </mxCell>
        <mxCell id="-LgoLQNuWOsBLOCq-GYV-2" value="清洗" style="rounded=0;whiteSpace=wrap;html=1;align=center;fontSize=15;fontStyle=1;strokeColor=none;" vertex="1" parent="1">
          <mxGeometry x="535" y="409.5" width="70" height="35" as="geometry" />
        </mxCell>
        <mxCell id="-LgoLQNuWOsBLOCq-GYV-3" value="过滤" style="rounded=0;whiteSpace=wrap;html=1;align=center;fontSize=15;fontStyle=1;strokeColor=none;" vertex="1" parent="1">
          <mxGeometry x="612" y="409.5" width="70" height="35" as="geometry" />
        </mxCell>
        <mxCell id="-LgoLQNuWOsBLOCq-GYV-4" value="..." style="rounded=0;whiteSpace=wrap;html=1;align=center;fontSize=15;fontStyle=1;strokeColor=none;" vertex="1" parent="1">
          <mxGeometry x="770" y="409.5" width="40" height="35" as="geometry" />
        </mxCell>
        <mxCell id="-LgoLQNuWOsBLOCq-GYV-5" value="变化数据捕获" style="rounded=0;whiteSpace=wrap;html=1;align=center;fontSize=15;fontStyle=1;strokeColor=none;" vertex="1" parent="1">
          <mxGeometry x="190" y="409.5" width="110" height="35" as="geometry" />
        </mxCell>
        <mxCell id="-S-HyHiKvbqIZE7HfSdG-10" value="采集交换" style="text;html=1;resizable=0;points=[];autosize=1;align=left;verticalAlign=top;spacingTop=-4;fontStyle=1;fontSize=16;" vertex="1" parent="1">
          <mxGeometry x="100" y="404" width="90" height="30" as="geometry" />
        </mxCell>
        <mxCell id="-LgoLQNuWOsBLOCq-GYV-8" value="固定式报表展现" style="rounded=0;whiteSpace=wrap;html=1;align=center;fontSize=15;fontStyle=1;strokeColor=none;" vertex="1" parent="1">
          <mxGeometry x="198" y="175" width="110" height="35" as="geometry" />
        </mxCell>
        <mxCell id="-LgoLQNuWOsBLOCq-GYV-9" value="自助式BI分析" style="rounded=0;whiteSpace=wrap;html=1;align=center;fontSize=15;fontStyle=1;strokeColor=none;" vertex="1" parent="1">
          <mxGeometry x="321.5" y="175" width="110" height="35" as="geometry" />
        </mxCell>
        <mxCell id="-LgoLQNuWOsBLOCq-GYV-10" value="数据可视化大屏" style="rounded=0;whiteSpace=wrap;html=1;align=center;fontSize=15;fontStyle=1;strokeColor=none;" vertex="1" parent="1">
          <mxGeometry x="447" y="175" width="110" height="35" as="geometry" />
        </mxCell>
        <mxCell id="-LgoLQNuWOsBLOCq-GYV-11" value="仪表盘" style="rounded=0;whiteSpace=wrap;html=1;align=center;fontSize=15;fontStyle=1;strokeColor=none;" vertex="1" parent="1">
          <mxGeometry x="572" y="175" width="110" height="35" as="geometry" />
        </mxCell>
        <mxCell id="-LgoLQNuWOsBLOCq-GYV-12" value="移动端报表" style="rounded=0;whiteSpace=wrap;html=1;align=center;fontSize=15;fontStyle=1;strokeColor=none;" vertex="1" parent="1">
          <mxGeometry x="693" y="175" width="110" height="35" as="geometry" />
        </mxCell>
        <mxCell id="-LgoLQNuWOsBLOCq-GYV-14" value="费用分析" style="rounded=0;whiteSpace=wrap;html=1;fontSize=15;fontStyle=1;strokeColor=none;" vertex="1" parent="1">
          <mxGeometry x="351" y="54" width="80" height="20" as="geometry" />
        </mxCell>
        <mxCell id="-LgoLQNuWOsBLOCq-GYV-15" value="治疗质量" style="rounded=0;whiteSpace=wrap;html=1;fontSize=15;fontStyle=1;strokeColor=none;" vertex="1" parent="1">
          <mxGeometry x="254" y="77" width="80" height="20" as="geometry" />
        </mxCell>
        <mxCell id="-LgoLQNuWOsBLOCq-GYV-16" value="药品分析" style="rounded=0;whiteSpace=wrap;html=1;fontSize=15;fontStyle=1;strokeColor=none;" vertex="1" parent="1">
          <mxGeometry x="351" y="77" width="80" height="20" as="geometry" />
        </mxCell>
        <mxCell id="-LgoLQNuWOsBLOCq-GYV-17" value="医技分析" style="rounded=0;whiteSpace=wrap;html=1;fontSize=15;fontStyle=1;strokeColor=none;" vertex="1" parent="1">
          <mxGeometry x="254" y="101" width="80" height="20" as="geometry" />
        </mxCell>
        <mxCell id="-LgoLQNuWOsBLOCq-GYV-18" value="手术分析" style="rounded=0;whiteSpace=wrap;html=1;fontSize=15;fontStyle=1;strokeColor=none;" vertex="1" parent="1">
          <mxGeometry x="351" y="101" width="80" height="20" as="geometry" />
        </mxCell>
        <mxCell id="-LgoLQNuWOsBLOCq-GYV-19" value="实时查询" style="rounded=0;whiteSpace=wrap;html=1;fontSize=15;fontStyle=1;strokeColor=none;" vertex="1" parent="1">
          <mxGeometry x="522" y="53" width="80" height="20" as="geometry" />
        </mxCell>
        <mxCell id="-LgoLQNuWOsBLOCq-GYV-20" value="工作量统计" style="rounded=0;whiteSpace=wrap;html=1;fontSize=15;fontStyle=1;strokeColor=none;" vertex="1" parent="1">
          <mxGeometry x="610" y="53" width="80" height="20" as="geometry" />
        </mxCell>
        <mxCell id="-LgoLQNuWOsBLOCq-GYV-21" value="医疗收入" style="rounded=0;whiteSpace=wrap;html=1;fontSize=15;fontStyle=1;strokeColor=none;" vertex="1" parent="1">
          <mxGeometry x="522" y="76" width="80" height="20" as="geometry" />
        </mxCell>
        <mxCell id="-LgoLQNuWOsBLOCq-GYV-22" value="费用药比" style="rounded=0;whiteSpace=wrap;html=1;fontSize=15;fontStyle=1;strokeColor=none;" vertex="1" parent="1">
          <mxGeometry x="610" y="76" width="80" height="20" as="geometry" />
        </mxCell>
        <mxCell id="-LgoLQNuWOsBLOCq-GYV-23" value="物资统计" style="rounded=0;whiteSpace=wrap;html=1;fontSize=15;fontStyle=1;strokeColor=none;" vertex="1" parent="1">
          <mxGeometry x="522" y="99" width="80" height="20" as="geometry" />
        </mxCell>
        <mxCell id="-LgoLQNuWOsBLOCq-GYV-24" value="特殊统计" style="rounded=0;whiteSpace=wrap;html=1;fontSize=15;fontStyle=1;strokeColor=none;" vertex="1" parent="1">
          <mxGeometry x="610" y="99" width="80" height="20" as="geometry" />
        </mxCell>
        <mxCell id="-LgoLQNuWOsBLOCq-GYV-25" value="医疗质量数据" style="strokeWidth=1;html=1;shape=mxgraph.flowchart.database;whiteSpace=wrap;align=center;fontSize=15;fontStyle=1;strokeColor=none;" vertex="1" parent="1">
          <mxGeometry x="295.75" y="269" width="99.5" height="70" as="geometry" />
        </mxCell>
        <mxCell id="-LgoLQNuWOsBLOCq-GYV-26" value="医疗效率数据" style="strokeWidth=1;html=1;shape=mxgraph.flowchart.database;whiteSpace=wrap;align=center;fontSize=15;fontStyle=1;strokeColor=none;" vertex="1" parent="1">
          <mxGeometry x="400.5" y="269" width="99.5" height="70" as="geometry" />
        </mxCell>
        <mxCell id="-LgoLQNuWOsBLOCq-GYV-27" value="用药数据" style="strokeWidth=1;html=1;shape=mxgraph.flowchart.database;whiteSpace=wrap;align=center;fontSize=15;fontStyle=1;strokeColor=none;" vertex="1" parent="1">
          <mxGeometry x="506" y="269" width="99.5" height="70" as="geometry" />
        </mxCell>
        <mxCell id="-LgoLQNuWOsBLOCq-GYV-28" value="..." style="strokeWidth=1;html=1;shape=mxgraph.flowchart.database;whiteSpace=wrap;align=center;fontSize=15;fontStyle=1;strokeColor=none;" vertex="1" parent="1">
          <mxGeometry x="714" y="270.5" width="99.5" height="70" as="geometry" />
        </mxCell>
        <mxCell id="-LgoLQNuWOsBLOCq-GYV-29" value="医疗收入数据" style="strokeWidth=1;html=1;shape=mxgraph.flowchart.database;whiteSpace=wrap;align=center;fontSize=15;fontStyle=1;strokeColor=none;" vertex="1" parent="1">
          <mxGeometry x="610" y="269" width="99.5" height="70" as="geometry" />
        </mxCell>
        <mxCell id="Fmkew6QS5NDUM3L0xf22-1" value="实时查询" style="rounded=0;whiteSpace=wrap;html=1;fontSize=15;fontStyle=1;strokeColor=none;" vertex="1" parent="1">
          <mxGeometry x="522" y="53" width="80" height="20" as="geometry" />
        </mxCell>
        <mxCell id="Fmkew6QS5NDUM3L0xf22-2" value="医疗收入" style="rounded=0;whiteSpace=wrap;html=1;fontSize=15;fontStyle=1;strokeColor=none;" vertex="1" parent="1">
          <mxGeometry x="522" y="76" width="80" height="20" as="geometry" />
        </mxCell>
        <mxCell id="Fmkew6QS5NDUM3L0xf22-3" value="&lt;span style=&quot;font-size: 17px;&quot;&gt;&lt;b&gt;系统管理&lt;/b&gt;&lt;/span&gt;" style="rounded=1;whiteSpace=wrap;html=1;align=left;fillColor=#FFB366;strokeColor=none;" vertex="1" parent="1">
          <mxGeometry x="710.5" y="47" width="100.5" height="80" as="geometry" />
        </mxCell>
      </root>
    </mxGraphModel>
  </diagram>
  <diagram id="-IUfJRfAYLhl0WgpH8bv" name="技术架构">
    <mxGraphModel dx="1424" dy="737" grid="1" gridSize="10" guides="1" tooltips="1" connect="1" arrows="1" fold="1" page="1" pageScale="1" pageWidth="827" pageHeight="1169" math="0" shadow="0">
      <root>
        <mxCell id="0" />
        <mxCell id="1" parent="0" />
        <mxCell id="YL0guMIxjp00_lPoTrau-1" value="" style="endArrow=none;dashed=1;html=1;exitX=1.017;exitY=0.12;exitDx=0;exitDy=0;exitPerimeter=0;" edge="1" parent="1">
          <mxGeometry width="50" height="50" relative="1" as="geometry">
            <mxPoint x="100.01999999999998" y="205.20000000000005" as="sourcePoint" />
            <mxPoint x="829" y="205" as="targetPoint" />
          </mxGeometry>
        </mxCell>
        <mxCell id="YL0guMIxjp00_lPoTrau-2" value="" style="endArrow=none;dashed=1;html=1;exitX=1.017;exitY=0.12;exitDx=0;exitDy=0;exitPerimeter=0;" edge="1" parent="1">
          <mxGeometry width="50" height="50" relative="1" as="geometry">
            <mxPoint x="100.01999999999998" y="360.20000000000005" as="sourcePoint" />
            <mxPoint x="829" y="360" as="targetPoint" />
          </mxGeometry>
        </mxCell>
        <mxCell id="YL0guMIxjp00_lPoTrau-3" value="" style="endArrow=none;dashed=1;html=1;exitX=1.017;exitY=0.12;exitDx=0;exitDy=0;exitPerimeter=0;" edge="1" parent="1">
          <mxGeometry width="50" height="50" relative="1" as="geometry">
            <mxPoint x="100.01999999999998" y="590.2" as="sourcePoint" />
            <mxPoint x="829" y="590" as="targetPoint" />
          </mxGeometry>
        </mxCell>
        <mxCell id="YL0guMIxjp00_lPoTrau-4" value="报表组件" style="text;html=1;resizable=0;points=[];autosize=1;align=left;verticalAlign=top;spacingTop=-4;fontStyle=1;fontSize=16;" vertex="1" parent="1">
          <mxGeometry x="100" y="146" width="90" height="30" as="geometry" />
        </mxCell>
        <mxCell id="YL0guMIxjp00_lPoTrau-6" value="数据资源层" style="text;html=1;resizable=0;points=[];autosize=1;align=left;verticalAlign=top;spacingTop=-4;fontStyle=1;fontSize=16;" vertex="1" parent="1">
          <mxGeometry x="100" y="287.5" width="100" height="30" as="geometry" />
        </mxCell>
        <mxCell id="YL0guMIxjp00_lPoTrau-7" value="采集交换" style="text;html=1;resizable=0;points=[];autosize=1;align=left;verticalAlign=top;spacingTop=-4;fontStyle=1;fontSize=16;" vertex="1" parent="1">
          <mxGeometry x="100" y="417" width="90" height="30" as="geometry" />
        </mxCell>
        <mxCell id="YL0guMIxjp00_lPoTrau-8" value="源数据" style="text;html=1;resizable=0;points=[];autosize=1;align=left;verticalAlign=top;spacingTop=-4;fontStyle=1;fontSize=16;" vertex="1" parent="1">
          <mxGeometry x="100" y="518" width="70" height="30" as="geometry" />
        </mxCell>
        <mxCell id="YL0guMIxjp00_lPoTrau-9" value="" style="rounded=0;whiteSpace=wrap;html=1;fillColor=#6666FF;strokeColor=none;" vertex="1" parent="1">
          <mxGeometry x="181" y="122" width="633" height="71" as="geometry" />
        </mxCell>
        <mxCell id="YL0guMIxjp00_lPoTrau-10" value="FINEREPORT" style="rounded=1;whiteSpace=wrap;html=1;fontSize=15;fontStyle=1;strokeColor=none;" vertex="1" parent="1">
          <mxGeometry x="251" y="130.5" width="160" height="54" as="geometry" />
        </mxCell>
        <mxCell id="YL0guMIxjp00_lPoTrau-11" value="FINEBI" style="rounded=1;whiteSpace=wrap;html=1;fontSize=15;fontStyle=1;strokeColor=none;" vertex="1" parent="1">
          <mxGeometry x="590" y="130.5" width="180" height="54" as="geometry" />
        </mxCell>
        <mxCell id="YL0guMIxjp00_lPoTrau-14" value="" style="rounded=1;whiteSpace=wrap;html=1;align=left;fillColor=#0000FF;strokeColor=none;" vertex="1" parent="1">
          <mxGeometry x="182" y="210" width="638" height="140" as="geometry" />
        </mxCell>
        <mxCell id="YL0guMIxjp00_lPoTrau-15" value="" style="rounded=1;whiteSpace=wrap;html=1;align=left;fillColor=#0000CC;strokeColor=none;fontSize=15;fontStyle=1" vertex="1" parent="1">
          <mxGeometry x="182" y="370" width="638" height="98" as="geometry" />
        </mxCell>
        <mxCell id="YL0guMIxjp00_lPoTrau-16" value="TURBODX" style="rounded=0;whiteSpace=wrap;html=1;align=center;fontSize=15;fontStyle=1;strokeColor=none;" vertex="1" parent="1">
          <mxGeometry x="200" y="409.5" width="120" height="35" as="geometry" />
        </mxCell>
        <mxCell id="YL0guMIxjp00_lPoTrau-17" value="KETTLE" style="rounded=0;whiteSpace=wrap;html=1;align=center;fontSize=15;fontStyle=1;strokeColor=none;" vertex="1" parent="1">
          <mxGeometry x="363.5" y="410" width="120" height="35" as="geometry" />
        </mxCell>
        <mxCell id="YL0guMIxjp00_lPoTrau-18" value="物化视图" style="rounded=0;whiteSpace=wrap;html=1;align=center;fontSize=15;fontStyle=1;strokeColor=none;" vertex="1" parent="1">
          <mxGeometry x="530" y="409.5" width="120" height="35" as="geometry" />
        </mxCell>
        <mxCell id="YL0guMIxjp00_lPoTrau-19" value="" style="rounded=1;whiteSpace=wrap;html=1;align=left;fillColor=#000066;strokeColor=none;" vertex="1" parent="1">
          <mxGeometry x="182" y="488" width="638" height="90" as="geometry" />
        </mxCell>
        <mxCell id="YL0guMIxjp00_lPoTrau-20" value="HIS" style="strokeWidth=1;html=1;shape=mxgraph.flowchart.database;whiteSpace=wrap;align=center;fontSize=15;fontStyle=1;strokeColor=none;" vertex="1" parent="1">
          <mxGeometry x="220.5" y="501.5" width="79.5" height="63" as="geometry" />
        </mxCell>
        <mxCell id="YL0guMIxjp00_lPoTrau-21" value="EMR" style="strokeWidth=1;html=1;shape=mxgraph.flowchart.database;whiteSpace=wrap;align=center;fontSize=14;fontStyle=1;strokeColor=none;" vertex="1" parent="1">
          <mxGeometry x="340.5" y="501.5" width="80" height="63" as="geometry" />
        </mxCell>
        <mxCell id="YL0guMIxjp00_lPoTrau-22" value="PACS/RIS" style="strokeWidth=1;html=1;shape=mxgraph.flowchart.database;whiteSpace=wrap;align=center;fontSize=15;fontStyle=1;strokeColor=none;" vertex="1" parent="1">
          <mxGeometry x="461" y="501.5" width="80" height="63" as="geometry" />
        </mxCell>
        <mxCell id="YL0guMIxjp00_lPoTrau-23" value="LIS" style="strokeWidth=1;html=1;shape=mxgraph.flowchart.database;whiteSpace=wrap;align=center;fontSize=15;fontStyle=1;strokeColor=none;" vertex="1" parent="1">
          <mxGeometry x="590" y="505.75" width="80" height="54.5" as="geometry" />
        </mxCell>
        <mxCell id="YL0guMIxjp00_lPoTrau-24" value="..." style="strokeWidth=1;html=1;shape=mxgraph.flowchart.database;whiteSpace=wrap;align=center;fontSize=15;fontStyle=1;strokeColor=none;" vertex="1" parent="1">
          <mxGeometry x="710" y="505.75" width="80" height="54.5" as="geometry" />
        </mxCell>
        <mxCell id="YL0guMIxjp00_lPoTrau-25" value="" style="endArrow=none;dashed=1;html=1;exitX=1.017;exitY=0.12;exitDx=0;exitDy=0;exitPerimeter=0;" edge="1" parent="1">
          <mxGeometry width="50" height="50" relative="1" as="geometry">
            <mxPoint x="100" y="480.20000000000005" as="sourcePoint" />
            <mxPoint x="828.98" y="480" as="targetPoint" />
          </mxGeometry>
        </mxCell>
        <mxCell id="YL0guMIxjp00_lPoTrau-31" value="" style="endArrow=none;dashed=1;html=1;exitX=1.017;exitY=0.12;exitDx=0;exitDy=0;exitPerimeter=0;" edge="1" parent="1">
          <mxGeometry width="50" height="50" relative="1" as="geometry">
            <mxPoint x="101.01999999999998" y="110.20000000000027" as="sourcePoint" />
            <mxPoint x="830.0000000000002" y="110" as="targetPoint" />
          </mxGeometry>
        </mxCell>
        <mxCell id="YL0guMIxjp00_lPoTrau-32" value="SQL" style="rounded=0;whiteSpace=wrap;html=1;align=center;fontSize=15;fontStyle=1;strokeColor=none;" vertex="1" parent="1">
          <mxGeometry x="670" y="409.5" width="120" height="35" as="geometry" />
        </mxCell>
        <mxCell id="0J95mkMjLjfj_fidBlaE-1" value="ORACLE" style="rounded=0;whiteSpace=wrap;html=1;align=center;fontSize=15;fontStyle=1;strokeColor=none;" vertex="1" parent="1">
          <mxGeometry x="640" y="282.5" width="120" height="35" as="geometry" />
        </mxCell>
        <mxCell id="0J95mkMjLjfj_fidBlaE-16" value="ODS" style="strokeWidth=1;html=1;shape=mxgraph.flowchart.database;whiteSpace=wrap;align=center;fontSize=15;fontStyle=1;strokeColor=none;" vertex="1" parent="1">
          <mxGeometry x="230" y="310" width="200" height="37.25" as="geometry" />
        </mxCell>
        <mxCell id="0J95mkMjLjfj_fidBlaE-17" value="DW" style="strokeWidth=1;html=1;shape=mxgraph.flowchart.database;whiteSpace=wrap;align=center;fontSize=15;fontStyle=1;strokeColor=none;" vertex="1" parent="1">
          <mxGeometry x="230" y="264.38" width="200" height="37.25" as="geometry" />
        </mxCell>
        <mxCell id="0J95mkMjLjfj_fidBlaE-19" value="ADS" style="strokeWidth=1;html=1;shape=mxgraph.flowchart.database;whiteSpace=wrap;align=center;fontSize=15;fontStyle=1;strokeColor=none;" vertex="1" parent="1">
          <mxGeometry x="230" y="220" width="200" height="37.25" as="geometry" />
        </mxCell>
        <mxCell id="0J95mkMjLjfj_fidBlaE-22" value="REDIS" style="rounded=0;whiteSpace=wrap;html=1;align=center;fontSize=15;fontStyle=1;strokeColor=none;" vertex="1" parent="1">
          <mxGeometry x="640" y="222.25" width="120" height="35" as="geometry" />
        </mxCell>
      </root>
    </mxGraphModel>
  </diagram>
</mxfile>
